<svg xmlns="http://www.w3.org/2000/svg" xmlns:xlink="http://www.w3.org/1999/xlink" version="1.1" width="256" height="256" viewBox="0 0 256 256" xml:space="preserve">
<desc>Created with Fabric.js 1.7.22</desc>
<defs>
</defs>
<g transform="translate(128 128) scale(0.72 0.72)" style="">
	<g style="stroke: none; stroke-width: 0; stroke-dasharray: none; stroke-linecap: butt; stroke-linejoin: miter; stroke-miterlimit: 10; fill: none; fill-rule: nonzero; opacity: 1;" transform="translate(-175.05 -175.05000000000004) scale(3.89 3.89)" >
	<circle cx="45" cy="45" r="45" style="stroke: none; stroke-width: 1; stroke-dasharray: none; stroke-linecap: butt; stroke-linejoin: miter; stroke-miterlimit: 10; fill: rgb(93,201,121); fill-rule: nonzero; opacity: 1;" transform="  matrix(1 0 0 1 0 0) "/>
	<path d="M 69.643 24.047 c -0.566 -0.72 -1.611 -0.862 -2.342 -0.309 c -6.579 4.976 -12.729 10.529 -18.402 16.574 c -3.022 3.229 -5.905 6.603 -8.599 10.161 c -1.431 1.904 -2.808 3.86 -4.109 5.889 h -0.082 l -7.6 -15.206 c -0.073 -0.146 -0.157 -0.293 -0.247 -0.433 c -1.401 -2.168 -4.343 -2.741 -6.462 -1.209 c -1.987 1.437 -2.337 4.279 -1.006 6.339 l 12.304 19.043 l 0.151 0.234 c 0.435 0.676 1.13 1.198 2.019 1.398 c 1.525 0.343 3.04 -0.567 3.671 -1.997 c 1.623 -3.678 3.724 -7.281 6.016 -10.76 c 2.337 -3.525 4.898 -6.936 7.614 -10.228 c 5.102 -6.169 10.74 -11.942 16.842 -17.188 C 70.093 25.768 70.199 24.754 69.643 24.047 z" style="stroke: none; stroke-width: 1; stroke-dasharray: none; stroke-linecap: butt; stroke-linejoin: miter; stroke-miterlimit: 10; fill: rgb(255,255,255); fill-rule: nonzero; opacity: 1;" transform=" matrix(1 0 0 1 0 0) " stroke-linecap="round" />
</g>
</g>
</svg>