<svg xmlns="http://www.w3.org/2000/svg" xmlns:xlink="http://www.w3.org/1999/xlink" version="1.1" width="256" height="256" viewBox="0 0 256 256" xml:space="preserve">
<desc>Created with Fabric.js 1.7.22</desc>
<defs>
</defs>
<g transform="translate(128 128) scale(0.72 0.72)" style="">
	<g style="stroke: none; stroke-width: 0; stroke-dasharray: none; stroke-linecap: butt; stroke-linejoin: miter; stroke-miterlimit: 10; fill: none; fill-rule: nonzero; opacity: 1;" transform="translate(-175.05 -175.05000000000004) scale(3.89 3.89)" >
	<path d="M 64.558 89 H 25.442 v -2.896 c 0 -2.972 2.41 -5.382 5.382 -5.382 h 28.352 c 2.972 0 5.382 2.41 5.382 5.382 V 89 z" style="stroke: none; stroke-width: 1; stroke-dasharray: none; stroke-linecap: butt; stroke-linejoin: miter; stroke-miterlimit: 10; fill: rgb(62,61,67); fill-rule: nonzero; opacity: 1;" transform=" matrix(1 0 0 1 0 0) " stroke-linecap="round" />
	<path d="M 25.563 44.699 c -0.026 0 -0.051 -0.001 -0.077 -0.001 C 15.161 44.395 7.074 36.063 7.074 25.728 V 11.19 c 0 -1.426 1.156 -2.581 2.581 -2.581 h 15.397 c 1.426 0 2.581 1.156 2.581 2.581 s -1.156 2.581 -2.581 2.581 H 12.237 v 11.957 c 0 7.523 5.886 13.589 13.4 13.809 c 1.425 0.042 2.547 1.231 2.505 2.656 C 28.1 43.592 26.953 44.699 25.563 44.699 z" style="stroke: none; stroke-width: 1; stroke-dasharray: none; stroke-linecap: butt; stroke-linejoin: miter; stroke-miterlimit: 10; fill: rgb(254,206,0); fill-rule: nonzero; opacity: 1;" transform=" matrix(1 0 0 1 0 0) " stroke-linecap="round" />
	<path d="M 64.436 44.699 c -1.392 0 -2.538 -1.107 -2.579 -2.506 c -0.041 -1.425 1.08 -2.614 2.505 -2.656 c 7.515 -0.219 13.402 -6.285 13.402 -13.809 V 13.771 H 64.947 c -1.426 0 -2.581 -1.156 -2.581 -2.581 s 1.156 -2.581 2.581 -2.581 h 15.398 c 1.426 0 2.581 1.156 2.581 2.581 v 14.539 c 0 10.336 -8.088 18.668 -18.414 18.969 C 64.486 44.698 64.461 44.699 64.436 44.699 z" style="stroke: none; stroke-width: 1; stroke-dasharray: none; stroke-linecap: butt; stroke-linejoin: miter; stroke-miterlimit: 10; fill: rgb(218,175,0); fill-rule: nonzero; opacity: 1;" transform=" matrix(1 0 0 1 0 0) " stroke-linecap="round" />
	<path d="M 25.563 45.699 l -0.096 -0.001 c -10.879 -0.319 -19.393 -9.09 -19.393 -19.969 V 11.19 c 0 -1.975 1.606 -3.582 3.582 -3.582 h 15.397 c 1.975 0 3.582 1.606 3.582 3.582 c 0 1.975 -1.606 3.581 -3.582 3.581 H 13.237 v 10.958 c 0 6.979 5.459 12.605 12.429 12.809 c 1.975 0.058 3.533 1.711 3.475 3.685 C 29.083 44.172 27.511 45.699 25.563 45.699 z M 9.655 9.608 c -0.872 0 -1.582 0.709 -1.582 1.582 v 14.539 c 0 9.79 7.661 17.684 17.441 17.97 l 0.048 1 v -1 c 0.86 0 1.554 -0.674 1.58 -1.536 c 0.025 -0.871 -0.663 -1.601 -1.535 -1.626 c -8.058 -0.235 -14.371 -6.74 -14.371 -14.808 V 12.771 h 13.815 c 0.872 0 1.582 -0.709 1.582 -1.581 c 0 -0.872 -0.709 -1.582 -1.582 -1.582 H 9.655 z" style="stroke: none; stroke-width: 1; stroke-dasharray: none; stroke-linecap: butt; stroke-linejoin: miter; stroke-miterlimit: 10; fill: rgb(0,0,0); fill-rule: nonzero; opacity: 1;" transform=" matrix(1 0 0 1 0 0) " stroke-linecap="round" />
	<path d="M 64.436 45.699 c -1.949 0 -3.521 -1.527 -3.579 -3.477 c -0.057 -1.974 1.503 -3.626 3.476 -3.684 c 6.971 -0.204 12.432 -5.83 12.432 -12.809 V 14.771 H 64.947 c -1.976 0 -3.582 -1.606 -3.582 -3.581 c 0 -1.975 1.606 -3.582 3.582 -3.582 h 15.397 c 1.975 0 3.581 1.606 3.581 3.582 v 14.539 c 0 10.88 -8.515 19.652 -19.384 19.969 L 64.436 45.699 z M 64.947 9.608 c -0.872 0 -1.582 0.709 -1.582 1.582 c 0 0.872 0.71 1.581 1.582 1.581 h 13.816 v 12.958 c 0 8.068 -6.313 14.573 -14.373 14.808 c -0.871 0.026 -1.56 0.755 -1.534 1.627 c 0.024 0.861 0.719 1.535 1.579 1.535 v 1 l 0.056 -1.001 c 9.773 -0.285 17.435 -8.178 17.435 -17.969 V 11.19 c 0 -0.872 -0.709 -1.582 -1.581 -1.582 H 64.947 z" style="stroke: none; stroke-width: 1; stroke-dasharray: none; stroke-linecap: butt; stroke-linejoin: miter; stroke-miterlimit: 10; fill: rgb(0,0,0); fill-rule: nonzero; opacity: 1;" transform=" matrix(1 0 0 1 0 0) " stroke-linecap="round" />
	<path d="M 18.184 1 c 2.247 1.082 3.641 3.136 3.641 6.272 v 26.279 c 0 11.471 8.674 20.913 19.82 22.133 v 20.672 h 4.899 V 55.685 c 11.146 -1.22 19.82 -10.662 19.82 -22.133 V 7.272 c 0 -3.136 1.393 -5.19 3.641 -6.272 H 18.184 z" style="stroke: none; stroke-width: 1; stroke-dasharray: none; stroke-linecap: butt; stroke-linejoin: miter; stroke-miterlimit: 10; fill: rgb(254,206,0); fill-rule: nonzero; opacity: 1;" transform=" matrix(1 0 0 1 0 0) " stroke-linecap="round" />
	<path d="M 58.342 1 v 27.979 c 0 12.325 -8.261 22.713 -19.546 25.95 c 1.213 0.351 2.465 0.614 3.754 0.755 v 20.672 h 4.899 V 55.685 c 11.146 -1.22 19.82 -10.662 19.82 -22.133 V 7.272 c 0 -3.136 1.393 -5.19 3.641 -6.272 H 58.342 z" style="stroke: none; stroke-width: 1; stroke-dasharray: none; stroke-linecap: butt; stroke-linejoin: miter; stroke-miterlimit: 10; fill: rgb(218,175,0); fill-rule: nonzero; opacity: 1;" transform=" matrix(1 0 0 1 0 0) " stroke-linecap="round" />
	<path d="M 47.449 77.356 H 42.55 c -0.552 0 -1 -0.447 -1 -1 V 56.563 c -11.361 -1.682 -19.82 -11.42 -19.82 -23.012 V 7.272 c 0 -2.582 -1.034 -4.389 -3.074 -5.372 c -0.42 -0.202 -0.645 -0.668 -0.541 -1.124 C 18.219 0.323 18.623 0 19.09 0 h 51.82 c 0.467 0 0.871 0.323 0.975 0.777 c 0.104 0.455 -0.12 0.921 -0.541 1.124 c -2.04 0.982 -3.074 2.79 -3.074 5.372 v 26.279 c 0 11.591 -8.459 21.33 -19.82 23.012 v 19.793 C 48.449 76.909 48.002 77.356 47.449 77.356 z M 43.55 75.356 h 2.899 V 55.685 c 0 -0.51 0.384 -0.938 0.892 -0.994 C 58.132 53.51 66.27 44.422 66.27 33.552 V 7.272 c 0 -2.138 0.586 -3.918 1.719 -5.272 H 22.012 c 1.132 1.354 1.718 3.134 1.718 5.272 v 26.279 c 0 10.87 8.138 19.958 18.929 21.139 c 0.507 0.056 0.891 0.484 0.891 0.994 V 75.356 z" style="stroke: none; stroke-width: 1; stroke-dasharray: none; stroke-linecap: butt; stroke-linejoin: miter; stroke-miterlimit: 10; fill: rgb(0,0,0); fill-rule: nonzero; opacity: 1;" transform=" matrix(1 0 0 1 0 0) " stroke-linecap="round" />
	<path d="M 56.745 80.722 H 33.255 l 0.74 -2.4 c 0.542 -1.756 2.165 -2.954 4.003 -2.954 h 14.005 c 1.838 0 3.461 1.198 4.003 2.954 L 56.745 80.722 z" style="stroke: none; stroke-width: 1; stroke-dasharray: none; stroke-linecap: butt; stroke-linejoin: miter; stroke-miterlimit: 10; fill: rgb(117,116,123); fill-rule: nonzero; opacity: 1;" transform=" matrix(1 0 0 1 0 0) " stroke-linecap="round" />
	<path d="M 56.745 81.722 H 33.254 c -0.317 0 -0.616 -0.15 -0.805 -0.406 s -0.245 -0.585 -0.151 -0.889 l 0.741 -2.399 c 0.675 -2.188 2.667 -3.659 4.958 -3.659 h 14.005 c 2.29 0 4.282 1.471 4.957 3.659 l 0.74 2.399 c 0.094 0.304 0.038 0.633 -0.15 0.889 S 57.063 81.722 56.745 81.722 z M 34.61 79.722 h 20.78 l -0.34 -1.104 c -0.416 -1.345 -1.64 -2.249 -3.047 -2.249 H 37.998 c -1.408 0 -2.632 0.903 -3.047 2.249 L 34.61 79.722 z" style="stroke: none; stroke-width: 1; stroke-dasharray: none; stroke-linecap: butt; stroke-linejoin: miter; stroke-miterlimit: 10; fill: rgb(0,0,0); fill-rule: nonzero; opacity: 1;" transform=" matrix(1 0 0 1 0 0) " stroke-linecap="round" />
	<path d="M 65.558 90 H 24.442 v -3.896 c 0 -3.519 2.863 -6.382 6.382 -6.382 h 28.352 c 3.519 0 6.382 2.863 6.382 6.382 V 90 z M 26.442 88 h 37.116 v -1.896 c 0 -2.416 -1.966 -4.382 -4.382 -4.382 H 30.824 c -2.416 0 -4.382 1.966 -4.382 4.382 V 88 z" style="stroke: none; stroke-width: 1; stroke-dasharray: none; stroke-linecap: butt; stroke-linejoin: miter; stroke-miterlimit: 10; fill: rgb(0,0,0); fill-rule: nonzero; opacity: 1;" transform=" matrix(1 0 0 1 0 0) " stroke-linecap="round" />
	<path d="M 54.211 6.684 H 22.596 c -0.552 0 -1 -0.448 -1 -1 s 0.448 -1 1 -1 h 31.615 c 0.553 0 1 0.448 1 1 S 54.764 6.684 54.211 6.684 z" style="stroke: none; stroke-width: 1; stroke-dasharray: none; stroke-linecap: butt; stroke-linejoin: miter; stroke-miterlimit: 10; fill: rgb(0,0,0); fill-rule: nonzero; opacity: 1;" transform=" matrix(1 0 0 1 0 0) " stroke-linecap="round" />
	<path d="M 61.855 6.684 h -2.339 c -0.553 0 -1 -0.448 -1 -1 s 0.447 -1 1 -1 h 2.339 c 0.553 0 1 0.448 1 1 S 62.408 6.684 61.855 6.684 z" style="stroke: none; stroke-width: 1; stroke-dasharray: none; stroke-linecap: butt; stroke-linejoin: miter; stroke-miterlimit: 10; fill: rgb(0,0,0); fill-rule: nonzero; opacity: 1;" transform=" matrix(1 0 0 1 0 0) " stroke-linecap="round" />
	<path d="M 48.463 62.08 h -6.927 c -1.774 0 -3.226 -1.452 -3.226 -3.226 v 0 c 0 -1.774 1.452 -3.226 3.226 -3.226 h 6.927 c 1.774 0 3.226 1.452 3.226 3.226 v 0 C 51.689 60.628 50.238 62.08 48.463 62.08 z" style="stroke: none; stroke-width: 1; stroke-dasharray: none; stroke-linecap: butt; stroke-linejoin: miter; stroke-miterlimit: 10; fill: rgb(218,175,0); fill-rule: nonzero; opacity: 1;" transform=" matrix(1 0 0 1 0 0) " stroke-linecap="round" />
	<path d="M 48.463 63.079 h -6.926 c -2.33 0 -4.226 -1.896 -4.226 -4.226 s 1.896 -4.226 4.226 -4.226 h 6.926 c 2.33 0 4.227 1.896 4.227 4.226 S 50.793 63.079 48.463 63.079 z M 41.537 56.628 c -1.228 0 -2.226 0.998 -2.226 2.226 s 0.999 2.226 2.226 2.226 h 6.926 c 1.228 0 2.227 -0.998 2.227 -2.226 s -0.999 -2.226 -2.227 -2.226 H 41.537 z" style="stroke: none; stroke-width: 1; stroke-dasharray: none; stroke-linecap: butt; stroke-linejoin: miter; stroke-miterlimit: 10; fill: rgb(0,0,0); fill-rule: nonzero; opacity: 1;" transform=" matrix(1 0 0 1 0 0) " stroke-linecap="round" />
	<path d="M 55.828 24.631 l -4.51 4.396 c -0.193 0.189 -0.282 0.46 -0.236 0.727 l 1.065 6.207 c 0.115 0.671 -0.589 1.182 -1.191 0.865 l -5.574 -2.93 c -0.239 -0.126 -0.525 -0.126 -0.764 0 l -5.574 2.93 c -0.602 0.317 -1.306 -0.195 -1.191 -0.865 l 1.065 -6.207 c 0.046 -0.266 -0.043 -0.538 -0.236 -0.727 l -4.51 -4.396 c -0.487 -0.475 -0.218 -1.302 0.455 -1.4 l 6.232 -0.906 c 0.267 -0.039 0.499 -0.207 0.618 -0.449 l 2.787 -5.647 c 0.301 -0.61 1.171 -0.61 1.472 0 l 2.787 5.647 c 0.12 0.242 0.351 0.41 0.618 0.449 l 6.232 0.906 C 56.047 23.329 56.316 24.156 55.828 24.631 z" style="stroke: none; stroke-width: 1; stroke-dasharray: none; stroke-linecap: butt; stroke-linejoin: miter; stroke-miterlimit: 10; fill: rgb(218,175,0); fill-rule: nonzero; opacity: 1;" transform=" matrix(1 0 0 1 0 0) " stroke-linecap="round" />
	<path d="M 38.66 37.922 c -0.376 0 -0.749 -0.118 -1.068 -0.349 c -0.565 -0.411 -0.843 -1.093 -0.725 -1.781 l 1.049 -6.115 l -4.442 -4.331 c -0.5 -0.487 -0.676 -1.202 -0.461 -1.866 c 0.216 -0.664 0.779 -1.139 1.47 -1.239 l 6.139 -0.892 l 2.745 -5.563 c 0.31 -0.626 0.935 -1.015 1.633 -1.015 s 1.324 0.389 1.633 1.015 l 2.745 5.563 l 6.139 0.892 c 0.691 0.1 1.255 0.575 1.471 1.239 s 0.039 1.379 -0.462 1.867 l -4.441 4.33 l 1.049 6.115 c 0.118 0.689 -0.16 1.372 -0.726 1.782 c -0.563 0.408 -1.298 0.461 -1.917 0.138 L 45 34.825 l -5.491 2.886 C 39.241 37.852 38.95 37.922 38.66 37.922 z M 45 32.801 c 0.291 0 0.582 0.07 0.848 0.21 l 5.253 2.761 l -1.003 -5.85 c -0.103 -0.59 0.094 -1.193 0.522 -1.612 l 4.25 -4.142 l -5.872 -0.854 c -0.594 -0.086 -1.107 -0.458 -1.372 -0.997 L 45 16.997 l -2.626 5.322 c -0.265 0.538 -0.777 0.91 -1.372 0.996 l -5.872 0.854 l 4.25 4.143 c 0.429 0.417 0.625 1.019 0.524 1.61 l -1.004 5.851 l 5.253 -2.762 C 44.418 32.871 44.709 32.801 45 32.801 z M 55.131 23.915 C 55.13 23.915 55.13 23.915 55.131 23.915 L 55.131 23.915 z" style="stroke: none; stroke-width: 1; stroke-dasharray: none; stroke-linecap: butt; stroke-linejoin: miter; stroke-miterlimit: 10; fill: rgb(0,0,0); fill-rule: nonzero; opacity: 1;" transform=" matrix(1 0 0 1 0 0) " stroke-linecap="round" />
</g>
</g>
</svg>