<svg xmlns="http://www.w3.org/2000/svg" xmlns:xlink="http://www.w3.org/1999/xlink" version="1.1" width="256" height="256" viewBox="0 0 256 256" xml:space="preserve">
<desc>Created with Fabric.js 1.7.22</desc>
<defs>
</defs>
<g transform="translate(128 128) scale(0.97 0.97)" style="">
	<g style="stroke: none; stroke-width: 0; stroke-dasharray: none; stroke-linecap: butt; stroke-linejoin: miter; stroke-miterlimit: 10; fill: none; fill-rule: nonzero; opacity: 1;" transform="translate(-130.05 -130.05000000000004) scale(2.89 2.89)" >
	<path d="M 54.312 40.681 c 0.219 1.408 0.334 2.849 0.334 4.319 c 0 10.03 -4.146 18.824 -12.091 23.74 c -4.259 2.636 -9.281 4.156 -14.658 4.156 C 12.49 72.897 0 60.407 0 45 s 12.49 -27.897 27.897 -27.897 c 7.081 0 13.541 2.643 18.461 6.99 l -7.362 7.744 c -2.998 -2.531 -6.868 -4.063 -11.099 -4.063 c -9.513 0 -17.225 7.712 -17.225 17.225 c 0 9.513 7.712 17.225 17.225 17.225 c 5.351 0 10.132 -2.44 13.291 -6.268 c 1.129 -1.368 1.773 -2.829 1.803 -4.592 H 27.916 V 40.696 L 54.312 40.681 z" style="stroke: none; stroke-width: 1; stroke-dasharray: none; stroke-linecap: butt; stroke-linejoin: miter; stroke-miterlimit: 10; fill: rgb(255,255,255); fill-rule: nonzero; opacity: 1;" transform=" matrix(1 0 0 1 0 0) " stroke-linecap="round" />
	<path d="M 44.55 40.666" style="stroke: none; stroke-width: 1; stroke-dasharray: none; stroke-linecap: butt; stroke-linejoin: miter; stroke-miterlimit: 10; fill: rgb(255,255,255); fill-rule: nonzero; opacity: 1;" transform=" matrix(1 0 0 1 0 0) " stroke-linecap="round" />
	<polygon points="90,40.01 78.76,40.01 78.76,28.77 71.19,28.77 71.19,40.01 59.96,40.01 59.96,47.57 71.19,47.57 71.19,58.81 78.76,58.81 78.76,47.57 90,47.57 " style="stroke: none; stroke-width: 1; stroke-dasharray: none; stroke-linecap: butt; stroke-linejoin: miter; stroke-miterlimit: 10; fill: rgb(255,255,255); fill-rule: nonzero; opacity: 1;" transform="  matrix(1 0 0 1 0 0) "/>
</g>
</g>
</svg>