<svg xmlns="http://www.w3.org/2000/svg" xmlns:xlink="http://www.w3.org/1999/xlink" version="1.1" width="256" height="256" viewBox="0 0 256 256" xml:space="preserve">
<desc>Created with Fabric.js 1.7.22</desc>
<defs>
</defs>
<g transform="translate(128 128) scale(0.97 0.97)" style="">
	<g style="stroke: none; stroke-width: 0; stroke-dasharray: none; stroke-linecap: butt; stroke-linejoin: miter; stroke-miterlimit: 10; fill: none; fill-rule: nonzero; opacity: 1;" transform="translate(-130.05 -130.05000000000004) scale(2.89 2.89)" >
	<circle cx="45" cy="45" r="45" style="stroke: none; stroke-width: 1; stroke-dasharray: none; stroke-linecap: butt; stroke-linejoin: miter; stroke-miterlimit: 10; fill: rgb(233,233,233); fill-rule: nonzero; opacity: 1;" transform="  matrix(1 0 0 1 0 0) "/>
	<path d="M 68.375 30.367 H 16.313 c -1.317 0 -2.394 1.077 -2.394 2.394 V 67.17 c 0 1.317 1.077 2.394 2.394 2.394 h 52.063 c 1.317 0 2.394 -1.077 2.394 -2.394 V 32.761 C 70.769 31.444 69.692 30.367 68.375 30.367 z M 24.794 37.339 c 2.669 0 4.833 2.164 4.833 4.833 c 0 2.669 -2.164 4.833 -4.833 4.833 s -4.833 -2.164 -4.833 -4.833 C 19.962 39.503 22.125 37.339 24.794 37.339 z M 66.569 65.054 H 47.521 H 31.096 H 18.5 c -1.388 0 -1.999 -1.75 -0.912 -2.614 l 14.51 -11.534 c 0.534 -0.424 1.29 -0.424 1.824 0 l 5.386 4.281 l 8.612 -6.845 c 0.534 -0.424 1.29 -0.424 1.824 0 l 17.737 14.099 C 68.568 63.305 67.957 65.054 66.569 65.054 z" style="stroke: none; stroke-width: 1; stroke-dasharray: none; stroke-linecap: butt; stroke-linejoin: miter; stroke-miterlimit: 10; fill: rgb(146,146,146); fill-rule: nonzero; opacity: 1;" transform=" matrix(1 0 0 1 0 0) " stroke-linecap="round" />
	<path d="M 71.524 27.218 H 19.461 c -1.317 0 -2.394 1.077 -2.394 2.394 v 34.409 c 0 1.317 1.077 2.394 2.394 2.394 h 52.063 c 1.317 0 2.394 -1.077 2.394 -2.394 V 29.612 C 73.918 28.295 72.841 27.218 71.524 27.218 z M 27.943 34.19 c 2.669 0 4.833 2.164 4.833 4.833 s -2.164 4.833 -4.833 4.833 s -4.833 -2.164 -4.833 -4.833 S 25.274 34.19 27.943 34.19 z M 69.718 61.906 H 50.67 H 34.245 H 21.649 c -1.388 0 -1.999 -1.75 -0.912 -2.614 l 14.51 -11.534 c 0.534 -0.424 1.29 -0.424 1.824 0 l 5.386 4.281 l 8.612 -6.845 c 0.534 -0.424 1.29 -0.424 1.824 0 L 70.63 59.292 C 71.717 60.156 71.106 61.906 69.718 61.906 z" style="stroke: none; stroke-width: 1; stroke-dasharray: none; stroke-linecap: butt; stroke-linejoin: miter; stroke-miterlimit: 10; fill: rgb(250,186,13); fill-rule: nonzero; opacity: 1;" transform=" matrix(1 0 0 1 0 0) " stroke-linecap="round" />
</g>
</g>
</svg>